<mxfile host="app.diagrams.net" agent="Mozilla/5.0 (Windows NT 10.0; Win64; x64; rv:139.0) Gecko/20100101 Firefox/139.0" version="27.1.6" pages="2">
  <diagram name="Page-1" id="XgOiE0L5lYsTfHLxKedJ">
    <mxGraphModel dx="1429" dy="856" grid="1" gridSize="10" guides="1" tooltips="1" connect="1" arrows="1" fold="1" page="1" pageScale="1" pageWidth="3300" pageHeight="4681" math="0" shadow="0">
      <root>
        <mxCell id="0" />
        <mxCell id="1" parent="0" />
        <mxCell id="pOaOmBc8zpwcmYCxppRg-3" style="edgeStyle=orthogonalEdgeStyle;rounded=0;orthogonalLoop=1;jettySize=auto;html=1;exitX=1;exitY=0.5;exitDx=0;exitDy=0;entryX=0;entryY=0.5;entryDx=0;entryDy=0;" edge="1" parent="1" source="pOaOmBc8zpwcmYCxppRg-1" target="pOaOmBc8zpwcmYCxppRg-2">
          <mxGeometry relative="1" as="geometry" />
        </mxCell>
        <mxCell id="pOaOmBc8zpwcmYCxppRg-1" value="data&#xa;Medical Data" style="rectangle;fillColor=#fff2cc;strokeColor=#d6b656;" name="data" vertex="1" parent="1">
          <mxGeometry x="340" y="230" width="100" height="50" as="geometry" />
        </mxCell>
        <mxCell id="pOaOmBc8zpwcmYCxppRg-5" style="edgeStyle=orthogonalEdgeStyle;rounded=0;orthogonalLoop=1;jettySize=auto;html=1;exitX=1;exitY=0.5;exitDx=0;exitDy=0;entryX=0.5;entryY=0;entryDx=0;entryDy=0;" edge="1" parent="1" source="pOaOmBc8zpwcmYCxppRg-2" target="pOaOmBc8zpwcmYCxppRg-4">
          <mxGeometry relative="1" as="geometry" />
        </mxCell>
        <mxCell id="pOaOmBc8zpwcmYCxppRg-2" value="transform" style="rounded=1;whiteSpace=wrap;html=1;arcSize=50;fillColor=#f8cecc;strokeColor=#b85450;" name="transform" vertex="1" parent="1">
          <mxGeometry x="520" y="230" width="100" height="50" as="geometry" />
        </mxCell>
        <mxCell id="pOaOmBc8zpwcmYCxppRg-7" style="edgeStyle=orthogonalEdgeStyle;rounded=0;orthogonalLoop=1;jettySize=auto;html=1;exitX=0.5;exitY=1;exitDx=0;exitDy=0;entryX=1;entryY=0.5;entryDx=0;entryDy=0;" edge="1" parent="1" source="pOaOmBc8zpwcmYCxppRg-4" target="pOaOmBc8zpwcmYCxppRg-6">
          <mxGeometry relative="1" as="geometry" />
        </mxCell>
        <mxCell id="pOaOmBc8zpwcmYCxppRg-4" value="data&#xa;Normalized Data" style="rectangle;fillColor=#fff2cc;strokeColor=#d6b656;" name="data" vertex="1" parent="1">
          <mxGeometry x="650" y="330" width="100" height="50" as="geometry" />
        </mxCell>
        <mxCell id="pOaOmBc8zpwcmYCxppRg-9" style="edgeStyle=orthogonalEdgeStyle;rounded=0;orthogonalLoop=1;jettySize=auto;html=1;exitX=0;exitY=0.5;exitDx=0;exitDy=0;entryX=0.5;entryY=0;entryDx=0;entryDy=0;" edge="1" parent="1" source="pOaOmBc8zpwcmYCxppRg-6" target="pOaOmBc8zpwcmYCxppRg-8">
          <mxGeometry relative="1" as="geometry" />
        </mxCell>
        <mxCell id="pOaOmBc8zpwcmYCxppRg-6" value="transform" style="rounded=1;whiteSpace=wrap;html=1;arcSize=50;fillColor=#f8cecc;strokeColor=#b85450;" name="transform" vertex="1" parent="1">
          <mxGeometry x="520" y="430" width="100" height="50" as="geometry" />
        </mxCell>
        <mxCell id="pOaOmBc8zpwcmYCxppRg-8" value="data&#xa;Segmented Data" style="rectangle;fillColor=#fff2cc;strokeColor=#d6b656;" name="data" vertex="1" parent="1">
          <mxGeometry x="390" y="530" width="100" height="50" as="geometry" />
        </mxCell>
        <mxCell id="pOaOmBc8zpwcmYCxppRg-10" value="generate:engineer" style="rounded=1;whiteSpace=wrap;html=1;arcSize=50;fillColor=#e1d5e7;strokeColor=#9673a6;" name="generate:engineer" vertex="1" parent="1">
          <mxGeometry x="390" y="660" width="100" height="50" as="geometry" />
        </mxCell>
        <mxCell id="pOaOmBc8zpwcmYCxppRg-12" value="&lt;div&gt;error&lt;/div&gt;&lt;div&gt;|&lt;/div&gt;&lt;div&gt;|&lt;/div&gt;&lt;div&gt;v&lt;/div&gt;" style="text;html=1;align=center;verticalAlign=middle;whiteSpace=wrap;rounded=0;dashed=1;fillColor=#f5f5f5;fontColor=#333333;strokeColor=#666666;strokeWidth=2;" name="text" vertex="1" parent="1">
          <mxGeometry x="425" y="580" width="30" height="80" as="geometry" />
        </mxCell>
        <mxCell id="pOaOmBc8zpwcmYCxppRg-18" style="edgeStyle=orthogonalEdgeStyle;rounded=0;orthogonalLoop=1;jettySize=auto;html=1;exitX=0.5;exitY=1;exitDx=0;exitDy=0;entryX=0;entryY=0.5;entryDx=0;entryDy=0;" edge="1" parent="1" source="pOaOmBc8zpwcmYCxppRg-13" target="pOaOmBc8zpwcmYCxppRg-17">
          <mxGeometry relative="1" as="geometry" />
        </mxCell>
        <mxCell id="pOaOmBc8zpwcmYCxppRg-13" value="symbol&#xa;Local Rules" style="rectangle;fillColor=#dae8fc;strokeColor=#6c8ebf;" name="symbol" vertex="1" parent="1" tooltip="⚠️ Node not part of any valid pattern.">
          <mxGeometry x="390" y="790" width="100" height="50" as="geometry" />
        </mxCell>
        <mxCell id="pOaOmBc8zpwcmYCxppRg-15" value="&lt;div&gt;error&lt;/div&gt;&lt;div&gt;|&lt;/div&gt;&lt;div&gt;|&lt;/div&gt;&lt;div&gt;v&lt;/div&gt;" style="text;html=1;align=center;verticalAlign=middle;whiteSpace=wrap;rounded=0;dashed=1;fillColor=#f5f5f5;fontColor=#333333;strokeColor=#666666;strokeWidth=2;" name="text" vertex="1" parent="1">
          <mxGeometry x="425" y="710" width="30" height="80" as="geometry" />
        </mxCell>
        <mxCell id="pOaOmBc8zpwcmYCxppRg-20" style="edgeStyle=orthogonalEdgeStyle;rounded=0;orthogonalLoop=1;jettySize=auto;html=1;exitX=1;exitY=0.5;exitDx=0;exitDy=0;entryX=0;entryY=0.5;entryDx=0;entryDy=0;" edge="1" parent="1" source="pOaOmBc8zpwcmYCxppRg-17" target="pOaOmBc8zpwcmYCxppRg-19">
          <mxGeometry relative="1" as="geometry" />
        </mxCell>
        <mxCell id="pOaOmBc8zpwcmYCxppRg-17" value="transform" style="rounded=1;whiteSpace=wrap;html=1;arcSize=50;fillColor=#f8cecc;strokeColor=#b85450;" name="transform" vertex="1" parent="1" tooltip="⚠️ Node not part of any valid pattern.">
          <mxGeometry x="520" y="890" width="100" height="50" as="geometry" />
        </mxCell>
        <mxCell id="pOaOmBc8zpwcmYCxppRg-22" style="edgeStyle=orthogonalEdgeStyle;rounded=0;orthogonalLoop=1;jettySize=auto;html=1;exitX=1;exitY=0.5;exitDx=0;exitDy=0;entryX=0;entryY=0.5;entryDx=0;entryDy=0;" edge="1" parent="1" source="pOaOmBc8zpwcmYCxppRg-19" target="pOaOmBc8zpwcmYCxppRg-21">
          <mxGeometry relative="1" as="geometry" />
        </mxCell>
        <mxCell id="pOaOmBc8zpwcmYCxppRg-19" value="symbol&#xa;Enriched Rules" style="rectangle;fillColor=#dae8fc;strokeColor=#6c8ebf;" name="symbol" vertex="1" parent="1" tooltip="⚠️ Node not part of any valid pattern.">
          <mxGeometry x="700" y="890" width="100" height="50" as="geometry" />
        </mxCell>
        <mxCell id="pOaOmBc8zpwcmYCxppRg-24" style="edgeStyle=orthogonalEdgeStyle;rounded=0;orthogonalLoop=1;jettySize=auto;html=1;exitX=1;exitY=0.5;exitDx=0;exitDy=0;entryX=0.5;entryY=0;entryDx=0;entryDy=0;" edge="1" parent="1" source="pOaOmBc8zpwcmYCxppRg-21" target="pOaOmBc8zpwcmYCxppRg-23">
          <mxGeometry relative="1" as="geometry" />
        </mxCell>
        <mxCell id="pOaOmBc8zpwcmYCxppRg-21" value="transform" style="rounded=1;whiteSpace=wrap;html=1;arcSize=50;fillColor=#f8cecc;strokeColor=#b85450;" name="transform" vertex="1" parent="1" tooltip="⚠️ Node not part of any valid pattern.">
          <mxGeometry x="880" y="890" width="100" height="50" as="geometry" />
        </mxCell>
        <mxCell id="pOaOmBc8zpwcmYCxppRg-23" value="symbol&#xa;Probabilistic Rules" style="rectangle;fillColor=#dae8fc;strokeColor=#6c8ebf;" name="symbol" vertex="1" parent="1" tooltip="⚠️ Node not part of any valid pattern.">
          <mxGeometry x="1010" y="990" width="100" height="50" as="geometry" />
        </mxCell>
        <mxCell id="pOaOmBc8zpwcmYCxppRg-30" style="edgeStyle=orthogonalEdgeStyle;rounded=0;orthogonalLoop=1;jettySize=auto;html=1;exitX=0.5;exitY=1;exitDx=0;exitDy=0;entryX=0.5;entryY=0;entryDx=0;entryDy=0;" edge="1" parent="1" source="pOaOmBc8zpwcmYCxppRg-25" target="pOaOmBc8zpwcmYCxppRg-29">
          <mxGeometry relative="1" as="geometry" />
        </mxCell>
        <mxCell id="pOaOmBc8zpwcmYCxppRg-25" value="generate:engineer" style="rounded=1;whiteSpace=wrap;html=1;arcSize=50;fillColor=#e1d5e7;strokeColor=#9673a6;" name="generate:engineer" vertex="1" parent="1">
          <mxGeometry x="1010" y="1120" width="100" height="50" as="geometry" />
        </mxCell>
        <mxCell id="pOaOmBc8zpwcmYCxppRg-28" value="&lt;div&gt;error&lt;/div&gt;&lt;div&gt;|&lt;/div&gt;&lt;div&gt;|&lt;/div&gt;&lt;div&gt;v&lt;/div&gt;" style="text;html=1;align=center;verticalAlign=middle;whiteSpace=wrap;rounded=0;dashed=1;fillColor=#f5f5f5;fontColor=#333333;strokeColor=#666666;strokeWidth=2;" name="text" vertex="1" parent="1">
          <mxGeometry x="1045" y="1040" width="30" height="80" as="geometry" />
        </mxCell>
        <mxCell id="pOaOmBc8zpwcmYCxppRg-32" style="edgeStyle=orthogonalEdgeStyle;rounded=0;orthogonalLoop=1;jettySize=auto;html=1;exitX=0.5;exitY=1;exitDx=0;exitDy=0;entryX=0.5;entryY=0;entryDx=0;entryDy=0;" edge="1" parent="1" source="pOaOmBc8zpwcmYCxppRg-29" target="pOaOmBc8zpwcmYCxppRg-31">
          <mxGeometry relative="1" as="geometry" />
        </mxCell>
        <mxCell id="pOaOmBc8zpwcmYCxppRg-29" value="model:hybrid&#xa;DPFRM System" style="shape=hexagon;perimeter=hexagonPerimeter2;fillColor=#b0e3e6;strokeColor=#0e8088;" name="model" vertex="1" parent="1">
          <mxGeometry x="1000" y="1250" width="120" height="50" as="geometry" />
        </mxCell>
        <mxCell id="pOaOmBc8zpwcmYCxppRg-37" style="edgeStyle=orthogonalEdgeStyle;rounded=0;orthogonalLoop=1;jettySize=auto;html=1;exitX=0.5;exitY=1;exitDx=0;exitDy=0;entryX=0.5;entryY=0;entryDx=0;entryDy=0;" edge="1" parent="1" source="pOaOmBc8zpwcmYCxppRg-31" target="pOaOmBc8zpwcmYCxppRg-36">
          <mxGeometry relative="1" as="geometry" />
        </mxCell>
        <mxCell id="pOaOmBc8zpwcmYCxppRg-31" value="infer:deduce" style="rounded=1;whiteSpace=wrap;html=1;arcSize=50;fillColor=#bac8d3;strokeColor=#23445d;" name="infer:deduce" vertex="1" parent="1">
          <mxGeometry x="1010" y="1380" width="100" height="50" as="geometry" />
        </mxCell>
        <mxCell id="pOaOmBc8zpwcmYCxppRg-35" style="edgeStyle=orthogonalEdgeStyle;rounded=0;orthogonalLoop=1;jettySize=auto;html=1;exitX=0;exitY=0.5;exitDx=0;exitDy=0;entryX=1;entryY=0.5;entryDx=0;entryDy=0;" edge="1" parent="1" source="pOaOmBc8zpwcmYCxppRg-33" target="pOaOmBc8zpwcmYCxppRg-31">
          <mxGeometry relative="1" as="geometry" />
        </mxCell>
        <mxCell id="pOaOmBc8zpwcmYCxppRg-33" value="data&#xa;Patient Data" style="rectangle;fillColor=#fff2cc;strokeColor=#d6b656;" name="data" vertex="1" parent="1">
          <mxGeometry x="1190" y="1380" width="100" height="50" as="geometry" />
        </mxCell>
        <mxCell id="pOaOmBc8zpwcmYCxppRg-36" value="symbol&#xa;Task Specific&#xa;Prediction (e.g.,&#xa;Mortality)" style="rectangle;fillColor=#dae8fc;strokeColor=#6c8ebf;" name="symbol" vertex="1" parent="1">
          <mxGeometry x="1010" y="1510" width="100" height="50" as="geometry" />
        </mxCell>
        <mxCell id="pOaOmBc8zpwcmYCxppRg-38" value="error" style="text;html=1;align=center;verticalAlign=middle;whiteSpace=wrap;rounded=0;dashed=1;fillColor=#f5f5f5;fontColor=#333333;strokeColor=#666666;strokeWidth=2;" name="text" vertex="1" parent="1">
          <mxGeometry x="550" y="850" width="40" height="30" as="geometry" />
        </mxCell>
        <mxCell id="pOaOmBc8zpwcmYCxppRg-39" value="error" style="text;html=1;align=center;verticalAlign=middle;whiteSpace=wrap;rounded=0;dashed=1;fillColor=#f5f5f5;fontColor=#333333;strokeColor=#666666;strokeWidth=2;" name="text" vertex="1" parent="1">
          <mxGeometry x="910" y="960" width="40" height="30" as="geometry" />
        </mxCell>
      </root>
    </mxGraphModel>
  </diagram>
  <diagram name="Copy of Page-1" id="q-9D4z-FNXeomWzaFZ62">
    <mxGraphModel dx="2246" dy="1346" grid="1" gridSize="10" guides="1" tooltips="1" connect="1" arrows="1" fold="1" page="1" pageScale="1" pageWidth="3300" pageHeight="4681" math="0" shadow="0">
      <root>
        <mxCell id="3jj0UrMlpkF7qUZpiQaS-0" />
        <mxCell id="3jj0UrMlpkF7qUZpiQaS-1" parent="3jj0UrMlpkF7qUZpiQaS-0" />
        <mxCell id="3jj0UrMlpkF7qUZpiQaS-2" style="edgeStyle=orthogonalEdgeStyle;rounded=0;orthogonalLoop=1;jettySize=auto;html=1;exitX=1;exitY=0.5;exitDx=0;exitDy=0;entryX=0;entryY=0.5;entryDx=0;entryDy=0;" edge="1" parent="3jj0UrMlpkF7qUZpiQaS-1" source="3jj0UrMlpkF7qUZpiQaS-3" target="3jj0UrMlpkF7qUZpiQaS-5">
          <mxGeometry relative="1" as="geometry" />
        </mxCell>
        <mxCell id="3jj0UrMlpkF7qUZpiQaS-3" value="data&#xa;Medical Data" style="rectangle;fillColor=#fff2cc;strokeColor=#d6b656;" name="data" vertex="1" parent="3jj0UrMlpkF7qUZpiQaS-1">
          <mxGeometry x="340" y="230" width="100" height="50" as="geometry" />
        </mxCell>
        <mxCell id="3jj0UrMlpkF7qUZpiQaS-4" style="edgeStyle=orthogonalEdgeStyle;rounded=0;orthogonalLoop=1;jettySize=auto;html=1;exitX=1;exitY=0.5;exitDx=0;exitDy=0;entryX=0.5;entryY=0;entryDx=0;entryDy=0;" edge="1" parent="3jj0UrMlpkF7qUZpiQaS-1" source="3jj0UrMlpkF7qUZpiQaS-5" target="3jj0UrMlpkF7qUZpiQaS-7">
          <mxGeometry relative="1" as="geometry" />
        </mxCell>
        <mxCell id="3jj0UrMlpkF7qUZpiQaS-5" value="transform" style="rounded=1;whiteSpace=wrap;html=1;arcSize=50;fillColor=#f8cecc;strokeColor=#b85450;" name="transform" vertex="1" parent="3jj0UrMlpkF7qUZpiQaS-1">
          <mxGeometry x="520" y="230" width="100" height="50" as="geometry" />
        </mxCell>
        <mxCell id="3jj0UrMlpkF7qUZpiQaS-6" style="edgeStyle=orthogonalEdgeStyle;rounded=0;orthogonalLoop=1;jettySize=auto;html=1;exitX=0.5;exitY=1;exitDx=0;exitDy=0;entryX=1;entryY=0.5;entryDx=0;entryDy=0;" edge="1" parent="3jj0UrMlpkF7qUZpiQaS-1" source="3jj0UrMlpkF7qUZpiQaS-7" target="3jj0UrMlpkF7qUZpiQaS-9">
          <mxGeometry relative="1" as="geometry" />
        </mxCell>
        <mxCell id="3jj0UrMlpkF7qUZpiQaS-7" value="data&#xa;Normalized Data" style="rectangle;fillColor=#fff2cc;strokeColor=#d6b656;" name="data" vertex="1" parent="3jj0UrMlpkF7qUZpiQaS-1">
          <mxGeometry x="650" y="330" width="100" height="50" as="geometry" />
        </mxCell>
        <mxCell id="3jj0UrMlpkF7qUZpiQaS-8" style="edgeStyle=orthogonalEdgeStyle;rounded=0;orthogonalLoop=1;jettySize=auto;html=1;exitX=0;exitY=0.5;exitDx=0;exitDy=0;entryX=0.5;entryY=0;entryDx=0;entryDy=0;" edge="1" parent="3jj0UrMlpkF7qUZpiQaS-1" source="3jj0UrMlpkF7qUZpiQaS-9" target="3jj0UrMlpkF7qUZpiQaS-10">
          <mxGeometry relative="1" as="geometry" />
        </mxCell>
        <mxCell id="3jj0UrMlpkF7qUZpiQaS-9" value="transform" style="rounded=1;whiteSpace=wrap;html=1;arcSize=50;fillColor=#f8cecc;strokeColor=#b85450;" name="transform" vertex="1" parent="3jj0UrMlpkF7qUZpiQaS-1">
          <mxGeometry x="520" y="430" width="100" height="50" as="geometry" />
        </mxCell>
        <mxCell id="90E-ug4SRRWo9lvWBS69-0" style="edgeStyle=orthogonalEdgeStyle;rounded=0;orthogonalLoop=1;jettySize=auto;html=1;exitX=0.5;exitY=1;exitDx=0;exitDy=0;entryX=0.5;entryY=0;entryDx=0;entryDy=0;" edge="1" parent="3jj0UrMlpkF7qUZpiQaS-1" source="3jj0UrMlpkF7qUZpiQaS-10" target="3jj0UrMlpkF7qUZpiQaS-11">
          <mxGeometry relative="1" as="geometry" />
        </mxCell>
        <mxCell id="3jj0UrMlpkF7qUZpiQaS-10" value="data&#xa;Segmented Data" style="rectangle;fillColor=#fff2cc;strokeColor=#d6b656;" name="data" vertex="1" parent="3jj0UrMlpkF7qUZpiQaS-1" tooltip="⚠️ Node not part of any valid pattern.">
          <mxGeometry x="390" y="530" width="100" height="50" as="geometry" />
        </mxCell>
        <mxCell id="90E-ug4SRRWo9lvWBS69-1" style="edgeStyle=orthogonalEdgeStyle;rounded=0;orthogonalLoop=1;jettySize=auto;html=1;exitX=0.5;exitY=1;exitDx=0;exitDy=0;entryX=0.5;entryY=0;entryDx=0;entryDy=0;" edge="1" parent="3jj0UrMlpkF7qUZpiQaS-1" source="3jj0UrMlpkF7qUZpiQaS-11" target="3jj0UrMlpkF7qUZpiQaS-14">
          <mxGeometry relative="1" as="geometry" />
        </mxCell>
        <mxCell id="3jj0UrMlpkF7qUZpiQaS-11" value="generate:engineer" style="rounded=1;whiteSpace=wrap;html=1;arcSize=50;fillColor=#e1d5e7;strokeColor=#9673a6;" name="generate:engineer" vertex="1" parent="3jj0UrMlpkF7qUZpiQaS-1" tooltip="⚠️ Node not part of any valid pattern.">
          <mxGeometry x="390" y="660" width="100" height="50" as="geometry" />
        </mxCell>
        <mxCell id="3jj0UrMlpkF7qUZpiQaS-13" style="edgeStyle=orthogonalEdgeStyle;rounded=0;orthogonalLoop=1;jettySize=auto;html=1;exitX=0.5;exitY=1;exitDx=0;exitDy=0;entryX=0;entryY=0.5;entryDx=0;entryDy=0;" edge="1" parent="3jj0UrMlpkF7qUZpiQaS-1" source="3jj0UrMlpkF7qUZpiQaS-14" target="3jj0UrMlpkF7qUZpiQaS-17">
          <mxGeometry relative="1" as="geometry" />
        </mxCell>
        <mxCell id="3jj0UrMlpkF7qUZpiQaS-14" value="symbol&#xa;Local Rules" style="rectangle;fillColor=#dae8fc;strokeColor=#6c8ebf;" name="symbol" vertex="1" parent="3jj0UrMlpkF7qUZpiQaS-1">
          <mxGeometry x="390" y="790" width="100" height="50" as="geometry" />
        </mxCell>
        <mxCell id="3jj0UrMlpkF7qUZpiQaS-16" style="edgeStyle=orthogonalEdgeStyle;rounded=0;orthogonalLoop=1;jettySize=auto;html=1;exitX=1;exitY=0.5;exitDx=0;exitDy=0;entryX=0;entryY=0.5;entryDx=0;entryDy=0;" edge="1" parent="3jj0UrMlpkF7qUZpiQaS-1" source="3jj0UrMlpkF7qUZpiQaS-17" target="3jj0UrMlpkF7qUZpiQaS-19">
          <mxGeometry relative="1" as="geometry" />
        </mxCell>
        <mxCell id="3jj0UrMlpkF7qUZpiQaS-17" value="transform" style="rounded=1;whiteSpace=wrap;html=1;arcSize=50;fillColor=#f8cecc;strokeColor=#b85450;" name="transform" vertex="1" parent="3jj0UrMlpkF7qUZpiQaS-1">
          <mxGeometry x="520" y="890" width="100" height="50" as="geometry" />
        </mxCell>
        <mxCell id="3jj0UrMlpkF7qUZpiQaS-18" style="edgeStyle=orthogonalEdgeStyle;rounded=0;orthogonalLoop=1;jettySize=auto;html=1;exitX=1;exitY=0.5;exitDx=0;exitDy=0;entryX=0;entryY=0.5;entryDx=0;entryDy=0;" edge="1" parent="3jj0UrMlpkF7qUZpiQaS-1" source="3jj0UrMlpkF7qUZpiQaS-19" target="3jj0UrMlpkF7qUZpiQaS-21">
          <mxGeometry relative="1" as="geometry" />
        </mxCell>
        <mxCell id="3jj0UrMlpkF7qUZpiQaS-19" value="symbol&#xa;Enriched Rules" style="rectangle;fillColor=#dae8fc;strokeColor=#6c8ebf;" name="symbol" vertex="1" parent="3jj0UrMlpkF7qUZpiQaS-1">
          <mxGeometry x="700" y="890" width="100" height="50" as="geometry" />
        </mxCell>
        <mxCell id="3jj0UrMlpkF7qUZpiQaS-20" style="edgeStyle=orthogonalEdgeStyle;rounded=0;orthogonalLoop=1;jettySize=auto;html=1;exitX=1;exitY=0.5;exitDx=0;exitDy=0;entryX=0.5;entryY=0;entryDx=0;entryDy=0;" edge="1" parent="3jj0UrMlpkF7qUZpiQaS-1" source="3jj0UrMlpkF7qUZpiQaS-21" target="3jj0UrMlpkF7qUZpiQaS-22">
          <mxGeometry relative="1" as="geometry" />
        </mxCell>
        <mxCell id="3jj0UrMlpkF7qUZpiQaS-21" value="transform" style="rounded=1;whiteSpace=wrap;html=1;arcSize=50;fillColor=#f8cecc;strokeColor=#b85450;" name="transform" vertex="1" parent="3jj0UrMlpkF7qUZpiQaS-1">
          <mxGeometry x="880" y="890" width="100" height="50" as="geometry" />
        </mxCell>
        <mxCell id="90E-ug4SRRWo9lvWBS69-2" style="edgeStyle=orthogonalEdgeStyle;rounded=0;orthogonalLoop=1;jettySize=auto;html=1;exitX=0.5;exitY=1;exitDx=0;exitDy=0;entryX=0.5;entryY=0;entryDx=0;entryDy=0;" edge="1" parent="3jj0UrMlpkF7qUZpiQaS-1" source="3jj0UrMlpkF7qUZpiQaS-22" target="3jj0UrMlpkF7qUZpiQaS-24">
          <mxGeometry relative="1" as="geometry" />
        </mxCell>
        <mxCell id="3jj0UrMlpkF7qUZpiQaS-22" value="symbol&#xa;Probabilistic Rules" style="rectangle;fillColor=#dae8fc;strokeColor=#6c8ebf;" name="symbol" vertex="1" parent="3jj0UrMlpkF7qUZpiQaS-1" tooltip="⚠️ Node not part of any valid pattern.">
          <mxGeometry x="1010" y="990" width="100" height="50" as="geometry" />
        </mxCell>
        <mxCell id="3jj0UrMlpkF7qUZpiQaS-23" style="edgeStyle=orthogonalEdgeStyle;rounded=0;orthogonalLoop=1;jettySize=auto;html=1;exitX=0.5;exitY=1;exitDx=0;exitDy=0;entryX=0.5;entryY=0;entryDx=0;entryDy=0;" edge="1" parent="3jj0UrMlpkF7qUZpiQaS-1" source="3jj0UrMlpkF7qUZpiQaS-24" target="3jj0UrMlpkF7qUZpiQaS-27">
          <mxGeometry relative="1" as="geometry" />
        </mxCell>
        <mxCell id="3jj0UrMlpkF7qUZpiQaS-24" value="generate:engineer" style="rounded=1;whiteSpace=wrap;html=1;arcSize=50;fillColor=#e1d5e7;strokeColor=#9673a6;" name="generate:engineer" vertex="1" parent="3jj0UrMlpkF7qUZpiQaS-1" tooltip="⚠️ Node not part of any valid pattern.">
          <mxGeometry x="1010" y="1120" width="100" height="50" as="geometry" />
        </mxCell>
        <mxCell id="3jj0UrMlpkF7qUZpiQaS-26" style="edgeStyle=orthogonalEdgeStyle;rounded=0;orthogonalLoop=1;jettySize=auto;html=1;exitX=0.5;exitY=1;exitDx=0;exitDy=0;entryX=0.5;entryY=0;entryDx=0;entryDy=0;" edge="1" parent="3jj0UrMlpkF7qUZpiQaS-1" source="3jj0UrMlpkF7qUZpiQaS-27" target="3jj0UrMlpkF7qUZpiQaS-29">
          <mxGeometry relative="1" as="geometry" />
        </mxCell>
        <mxCell id="3jj0UrMlpkF7qUZpiQaS-27" value="model:hybrid&#xa;DPFRM System" style="shape=hexagon;perimeter=hexagonPerimeter2;fillColor=#b0e3e6;strokeColor=#0e8088;" name="model" vertex="1" parent="3jj0UrMlpkF7qUZpiQaS-1">
          <mxGeometry x="1000" y="1250" width="120" height="50" as="geometry" />
        </mxCell>
        <mxCell id="3jj0UrMlpkF7qUZpiQaS-28" style="edgeStyle=orthogonalEdgeStyle;rounded=0;orthogonalLoop=1;jettySize=auto;html=1;exitX=0.5;exitY=1;exitDx=0;exitDy=0;entryX=0.5;entryY=0;entryDx=0;entryDy=0;" edge="1" parent="3jj0UrMlpkF7qUZpiQaS-1" source="3jj0UrMlpkF7qUZpiQaS-29" target="3jj0UrMlpkF7qUZpiQaS-32">
          <mxGeometry relative="1" as="geometry" />
        </mxCell>
        <mxCell id="3jj0UrMlpkF7qUZpiQaS-29" value="infer:deduce" style="rounded=1;whiteSpace=wrap;html=1;arcSize=50;fillColor=#bac8d3;strokeColor=#23445d;" name="infer:deduce" vertex="1" parent="3jj0UrMlpkF7qUZpiQaS-1">
          <mxGeometry x="1010" y="1380" width="100" height="50" as="geometry" />
        </mxCell>
        <mxCell id="3jj0UrMlpkF7qUZpiQaS-30" style="edgeStyle=orthogonalEdgeStyle;rounded=0;orthogonalLoop=1;jettySize=auto;html=1;exitX=0;exitY=0.5;exitDx=0;exitDy=0;entryX=1;entryY=0.5;entryDx=0;entryDy=0;" edge="1" parent="3jj0UrMlpkF7qUZpiQaS-1" source="3jj0UrMlpkF7qUZpiQaS-31" target="3jj0UrMlpkF7qUZpiQaS-29">
          <mxGeometry relative="1" as="geometry" />
        </mxCell>
        <mxCell id="3jj0UrMlpkF7qUZpiQaS-31" value="data&#xa;Patient Data" style="rectangle;fillColor=#fff2cc;strokeColor=#d6b656;" name="data" vertex="1" parent="3jj0UrMlpkF7qUZpiQaS-1">
          <mxGeometry x="1190" y="1380" width="100" height="50" as="geometry" />
        </mxCell>
        <mxCell id="3jj0UrMlpkF7qUZpiQaS-32" value="symbol&#xa;Task Specific&#xa;Prediction (e.g.,&#xa;Mortality)" style="rectangle;fillColor=#dae8fc;strokeColor=#6c8ebf;" name="symbol" vertex="1" parent="3jj0UrMlpkF7qUZpiQaS-1">
          <mxGeometry x="1010" y="1510" width="100" height="50" as="geometry" />
        </mxCell>
        <mxCell id="3jj0UrMlpkF7qUZpiQaS-33" value="error" style="text;html=1;align=center;verticalAlign=middle;whiteSpace=wrap;rounded=0;dashed=1;fillColor=#f5f5f5;fontColor=#333333;strokeColor=#666666;strokeWidth=2;" name="text" vertex="1" parent="3jj0UrMlpkF7qUZpiQaS-1">
          <mxGeometry x="510" y="670" width="40" height="30" as="geometry" />
        </mxCell>
        <mxCell id="3jj0UrMlpkF7qUZpiQaS-34" value="error" style="text;html=1;align=center;verticalAlign=middle;whiteSpace=wrap;rounded=0;dashed=1;fillColor=#f5f5f5;fontColor=#333333;strokeColor=#666666;strokeWidth=2;" name="text" vertex="1" parent="3jj0UrMlpkF7qUZpiQaS-1">
          <mxGeometry x="960" y="1130" width="40" height="30" as="geometry" />
        </mxCell>
      </root>
    </mxGraphModel>
  </diagram>
</mxfile>
